<?xml version="1.0" encoding="utf-8"?>
<!-- Generator: Adobe Illustrator 16.0.0, SVG Export Plug-In . SVG Version: 6.00 Build 0)  -->
<!DOCTYPE svg PUBLIC "-//W3C//DTD SVG 1.1//EN" "http://www.w3.org/Graphics/SVG/1.1/DTD/svg11.dtd">
<svg version="1.1" id="Calque_1" xmlns="http://www.w3.org/2000/svg" xmlns:xlink="http://www.w3.org/1999/xlink" x="0px" y="0px"
	 width="512px" height="512px" viewBox="0 0 512 512" enable-background="new 0 0 512 512" xml:space="preserve">
<path id="shopping-cart-15-icon" fill="#0A7A8F" d="M227.682,381c0,14.852-12.039,26.891-26.891,26.891
	c-14.853,0-26.892-12.039-26.892-26.891s12.039-26.891,26.892-26.891C215.643,354.109,227.682,366.148,227.682,381z
	 M389.609,106.109l-59.18,188.167H159.338L94.416,144.609H50.418l82.914,189.667h0.274h226.07l59.178-188.167h29.979l12.746-40
	H389.609z M289.676,354.109c-14.853,0-26.891,12.039-26.891,26.891s12.038,26.891,26.891,26.891
	c14.852,0,26.891-12.039,26.891-26.891S304.527,354.109,289.676,354.109z M242.261,104.109c-42.963,0-77.792,34.828-77.792,77.791
	c0,42.963,34.829,77.792,77.792,77.792s77.792-34.828,77.792-77.792C320.053,138.937,285.224,104.109,242.261,104.109z
	 M229.025,223.801l-36.752-36.762l15.648-15.652l21.104,21.109l48.722-48.721l15.655,15.645L229.025,223.801z"/>
</svg>
